PathFileType	4	(X/Y/Z)	C:/Users/opensim2020/Desktop/walking_exp_matlab/subject06_walking20_straight_01.trc																																																																																																																															
DataRate	CameraRate	NumFrames	NumMarkers	Units	OrigDataRate	OrigDataStartFrame	OrigNumFrames																																																																																																																											
100	100	5	43	mm	100	764	127																																																																																																																											
Frame#	Time	LFHD			RFHD			LBHD			RBHD			C7			T10			CLAV			STRN			RBAK			LSHO			LUPA			LELB			LFRM			LWRA			LWRB			LFIN			RSHO			RUPA			RELB			RFRM			RWRA			RWRB			RFIN			LASI			RASI			LPSI			RPSI			LTHI			LKNE			LTIB			LANK			LHEE			LTOE			RTHI			RKNE			RTIB			RANK			RHEE			RTOE			*39			*40			*41			*42		
		X1	Y1	Z1	X2	Y2	Z2	X3	Y3	Z3	X4	Y4	Z4	X5	Y5	Z5	X6	Y6	Z6	X7	Y7	Z7	X8	Y8	Z8	X9	Y9	Z9	X10	Y10	Z10	X11	Y11	Z11	X12	Y12	Z12	X13	Y13	Z13	X14	Y14	Z14	X15	Y15	Z15	X16	Y16	Z16	X17	Y17	Z17	X18	Y18	Z18	X19	Y19	Z19	X20	Y20	Z20	X21	Y21	Z21	X22	Y22	Z22	X23	Y23	Z23	X24	Y24	Z24	X25	Y25	Z25	X26	Y26	Z26	X27	Y27	Z27	X28	Y28	Z28	X29	Y29	Z29	X30	Y30	Z30	X31	Y31	Z31	X32	Y32	Z32	X33	Y33	Z33	X34	Y34	Z34	X35	Y35	Z35	X36	Y36	Z36	X37	Y37	Z37	X38	Y38	Z38	X39	Y39	Z39	X40	Y40	Z40	X41	Y41	Z41	X42	Y42	Z42	X43	Y43	Z43
																																																																																																																																		
32	0.31	-513.34039	1623.20068	-1071.70032	-508.38342	1611.05017	-940.51117	-649.18817	1576.24011	-1066.98914	-642.67389	1569.54187	-937.56555	-656.68591	1421.45862	-1007.85095	-722.73877	1097.81982	-991.26758	-555.12634	1332.9093	-1012.42126	-533.88953	1156.04541	-1013.61212	-739.75732	1262.54773	-913.47986	-618.71881	1366.73938	-1170.98938	-684.90967	1176.5011	-1240.15442	-726.36774	1072.73169	-1253.15881	-751.25226	926.47705	-1286.85168	-718.55231	796.03815	-1262.05505	-784.45398	812.09161	-1289.48071	-770.02466	722.24561	-1299.66699	-585.02301	1375.94055	-850.86444	-619.87109	1189.64673	-742.66534	-604.76587	1072.21362	-720.91974	-543.85016	971.53735	-713.11975	-436.56479	878.43164	-768.21857	-475.94373	853.80573	-720.52222	-408.60889	806.35962	-729.95703	-550.40399	931.30933	-1101.99719	-559.93274	930.19983	-882.91992	-709.79736	959.14417	-1082.34387	-709.01959	964.52325	-913.70221	-546.97253	628.05206	-1182.83728	-470.97476	485.83871	-1152.63989	-424.75751	234.81543	-1144.92444	-360.92963	71.88803	-1109.20154	-389.88	47.74826	-1058.86877	-213.50801	85.51968	-1113.0979	-668.56592	603.79718	-842.8064	-700.62122	480.81995	-865.84009	-838.63141	246.49603	-867.97424	-924.83875	80.74589	-913.24225	-976.08319	66.32954	-952.91254	-783.53418	29.98776	-925.36548	-608.85742	1666.17505	-1008.42322	NaN	NaN	NaN	NaN	NaN	NaN	NaN	NaN	NaN
33	0.32	-500.42148	1620.64563	-1072.83313	-495.34644	1608.69141	-941.52722	-636.08344	1573.43591	-1068.04529	-629.58746	1566.81653	-938.5871	-643.54022	1418.99182	-1008.83209	-709.10272	1094.99109	-992.34039	-541.81604	1330.29358	-1013.19409	-520.41357	1153.50977	-1013.93555	-726.74762	1260.20337	-914.28131	-605.26215	1363.81567	-1172.05957	-673.76904	1174.35583	-1240.80042	-717.09509	1071.24072	-1253.78467	-744.53052	925.50421	-1287.4884	-713.21936	794.62067	-1263.60999	-779.5238	811.59967	-1289.74829	-766.14697	721.86432	-1300.71997	-571.85999	1373.38477	-851.65491	-606.09521	1187.07983	-743.22388	-590.17181	1069.90796	-721.09955	-527.99371	970.18188	-713.55988	-419.35251	878.98694	-768.8208	-458.36276	853.64825	-721.21838	-390.1123	807.42206	-730.70209	-535.62408	928.8139	-1101.91199	-546.1507	928.10382	-882.64496	-694.46643	956.03015	-1083.99658	-695.55054	961.39642	-915.33099	-529.75879	625.54968	-1183.37988	-454.68573	483.67664	-1151.79309	-402.47232	233.88716	-1145.1167	-335.1069	72.57268	-1108.79712	-363.39252	47.42179	-1058.3291	-188.20265	90.6123	-1112.9032	-657.19977	602.55225	-842.69269	-690.38745	479.71133	-865.33478	-833.50928	248.06456	-867.92004	-923.32281	84.11191	-912.98309	-974.59796	70.9525	-952.828	-783.46716	30.05977	-925.19788	-595.95428	1663.50757	-1009.58466	NaN	NaN	NaN	NaN	NaN	NaN	NaN	NaN	NaN
34	0.33	-487.13187	1618.5282	-1073.93066	-482.23468	1606.66614	-942.59296	-622.79236	1570.94324	-1069.22144	-616.39075	1564.48438	-939.8056	-630.22015	1416.73499	-1010.02405	-695.11517	1092.46838	-993.45612	-528.40186	1328.05273	-1014.04974	-506.65182	1151.33826	-1014.36945	-713.5238	1258.03918	-915.27881	-591.68719	1361.09546	-1173.23572	-662.1098	1172.39832	-1241.57507	-707.11005	1069.98096	-1254.39087	-736.97943	924.71606	-1288.05298	-708.26703	793.10297	-1265.25269	-773.68207	811.15729	-1289.93225	-761.74292	721.57611	-1301.74414	-558.53595	1371.24036	-852.50134	-592.21655	1184.82617	-744.00323	-575.82233	1067.85742	-721.50909	-512.5144	968.93683	-714.12286	-402.56265	879.57074	-769.33557	-441.43497	853.39233	-721.96552	-372.60257	808.30219	-731.30255	-519.58289	927.078	-1101.90295	-532.2937	926.2511	-882.29938	-678.79407	953.34619	-1085.68701	-681.62982	958.55524	-917.02271	-512.32263	623.55145	-1183.56494	-438.42801	482.01096	-1151.15283	-381.8302	232.9688	-1145.05249	-312.25064	72.78898	-1107.77161	-339.94785	47.0331	-1057.25977	-165.34671	94.27142	-1112.78003	-645.32245	601.3255	-842.47388	-679.26996	478.65308	-864.93561	-827.65009	249.95216	-867.9303	-921.42218	88.09085	-912.58521	-972.35309	75.73225	-953.18518	-783.38184	30.0714	-925.13995	-582.9613	1661.1665	-1010.85547	NaN	NaN	NaN	NaN	NaN	NaN	NaN	NaN	NaN
35	0.34	-473.85715	1616.73584	-1074.92249	-469.13397	1605.01318	-943.70428	-609.40521	1568.8678	-1070.58191	-603.22028	1562.49634	-941.10815	-616.74298	1414.83691	-1011.29041	-680.81445	1090.25854	-994.63824	-514.69049	1326.19983	-1015.08136	-492.61377	1149.62292	-1014.92511	-699.96338	1256.23657	-916.55096	-577.94214	1358.64221	-1174.24243	-649.87628	1170.80103	-1242.70483	-696.19556	1068.85681	-1254.9707	-728.53137	924.16559	-1288.53491	-700.75067	792.49927	-1266.78943	-767.11243	811.09052	-1290.09399	-756.62	721.62689	-1302.69177	-545.12927	1369.43567	-853.56238	-578.28613	1183.07727	-745.14465	-561.57263	1066.21484	-722.17987	-497.38162	967.87891	-714.77948	-386.69211	879.74323	-769.96515	-425.34766	853.08081	-722.7218	-356.11465	809.01154	-731.94519	-503.34515	925.64862	-1102.03027	-517.98193	924.67078	-882.05963	-662.74457	951.12842	-1087.28711	-667.28015	956.05688	-918.63806	-494.76111	622.20197	-1183.4043	-422.17075	480.74069	-1150.63269	-362.86432	232.01619	-1144.73267	-292.534	72.3795	-1106.68408	-319.8692	46.24351	-1056.16895	-145.98372	95.96922	-1111.74719	-632.97626	600.06433	-842.87531	-667.12152	477.42328	-864.8681	-820.99188	252.11079	-867.8468	-918.89893	92.65224	-912.12994	-970.81061	82.87577	-952.04254	-783.21381	30.07167	-925.09833	-569.86993	1659.23022	-1012.15637	NaN	NaN	NaN	NaN	NaN	NaN	NaN	NaN	NaN
36	0.35	-460.39334	1615.42517	-1076.11438	-455.98224	1603.7074	-944.67151	-595.81049	1567.31152	-1072.09509	-590.04877	1560.9303	-942.62689	-603.26093	1413.40234	-1012.64069	-666.20026	1088.44409	-995.69934	-500.97668	1324.86743	-1016.14014	-478.16614	1148.42798	-1015.55426	-686.31927	1254.70398	-917.99652	-564.09589	1357.10693	-1175.60217	-636.84399	1169.47351	-1243.40674	-684.55774	1068.01843	-1255.44189	-719.17084	923.92297	-1288.97461	-693.3786	791.72705	-1268.03784	-759.69373	811.47797	-1290.15637	-750.58575	721.9928	-1303.59937	-531.63202	1368.07239	-854.72925	-564.70789	1181.75439	-746.26599	-547.45502	1065.00537	-723.1402	-482.74182	967.07556	-715.65588	-371.49014	879.79608	-770.5697	-409.98108	852.78339	-723.50964	-340.31631	809.4469	-732.35004	-486.81476	924.58685	-1102.2019	-503.41428	923.36731	-882.09039	-646.47498	949.41748	-1088.81934	-652.40918	953.98053	-920.24371	-476.97357	621.48883	-1183.01184	-405.80112	479.86765	-1150.08386	-345.65405	230.93594	-1144.43359	-275.76859	71.24844	-1105.70422	-303.24655	44.70369	-1055.46521	-129.48117	95.65569	-1109.89087	-619.64789	599.03229	-842.66705	-653.90887	476.263	-864.95337	-813.40527	254.5798	-867.78888	-915.79053	97.81838	-911.58453	-967.7666	89.93775	-951.51154	-782.96033	30.08728	-925.06262	-556.69238	1657.72253	-1013.56909	NaN	NaN	NaN	NaN	NaN	NaN	NaN	NaN	NaN
